<?xml version="1.0" encoding="UTF-8" standalone="no"?>
<!DOCTYPE svg PUBLIC "-//W3C//DTD SVG 1.1//EN"
 "http://www.w3.org/Graphics/SVG/1.1/DTD/svg11.dtd">
<!-- Generated by graphviz version 2.40.1 (20161225.0304)
 -->
<!-- Title: dependencies Pages: 1 -->
<svg width="912pt" height="284pt"
 viewBox="0.00 0.00 912.00 284.00" xmlns="http://www.w3.org/2000/svg" xmlns:xlink="http://www.w3.org/1999/xlink">
<g id="graph0" class="graph" transform="scale(1 1) rotate(0) translate(4 280)">
<title>dependencies</title>
<polygon fill="#ffffff" stroke="transparent" points="-4,4 -4,-280 908,-280 908,4 -4,4"/>
<text text-anchor="start" x="431.0091" y="-42.4" font-family="sans-serif" font-weight="bold" font-size="14.00" fill="#000000">Legend</text>
<polygon fill="#ffffb3" stroke="transparent" points="218,-10 218,-30 238,-30 238,-10 218,-10"/>
<text text-anchor="start" x="241.629" y="-15.4" font-family="sans-serif" font-size="14.00" fill="#000000"> &#160;Declarations</text>
<polygon fill="#8dd3c7" stroke="transparent" points="331,-10 331,-30 351,-30 351,-10 331,-10"/>
<text text-anchor="start" x="354.7251" y="-15.4" font-family="sans-serif" font-size="14.00" fill="#000000"> &#160;Module</text>
<polygon fill="#80b1d3" stroke="transparent" points="417,-10 417,-30 437,-30 437,-10 417,-10"/>
<text text-anchor="start" x="440.7812" y="-15.4" font-family="sans-serif" font-size="14.00" fill="#000000"> &#160;Bootstrap</text>
<polygon fill="#fdb462" stroke="transparent" points="514,-10 514,-30 534,-30 534,-10 514,-10"/>
<text text-anchor="start" x="537.6732" y="-15.4" font-family="sans-serif" font-size="14.00" fill="#000000"> &#160;Providers</text>
<polygon fill="#fb8072" stroke="transparent" points="610,-10 610,-30 630,-30 630,-10 610,-10"/>
<text text-anchor="start" x="633.7258" y="-15.4" font-family="sans-serif" font-size="14.00" fill="#000000"> &#160;Exports</text>
<g id="clust1" class="cluster">
<title>cluster_AngularDatatableModule</title>
<polygon fill="none" stroke="#000000" stroke-dasharray="1,5" points="8,-70 8,-268 896,-268 896,-70 8,-70"/>
</g>
<g id="clust3" class="cluster">
<title>cluster_AngularDatatableModule_imports</title>
<polygon fill="none" stroke="#000000" points="416,-78 416,-130 544,-130 544,-78 416,-78"/>
</g>
<g id="clust4" class="cluster">
<title>cluster_AngularDatatableModule_exports</title>
<polygon fill="none" stroke="#000000" points="16,-208 16,-260 888,-260 888,-208 16,-208"/>
</g>
<!-- CommonModule -->
<g id="node1" class="node">
<title>CommonModule</title>
<polygon fill="#8dd3c7" stroke="#000000" points="535.6681,-122 532.6681,-126 511.6681,-126 508.6681,-122 424.3319,-122 424.3319,-86 535.6681,-86 535.6681,-122"/>
<text text-anchor="middle" x="480" y="-99.8" font-family="Times,serif" font-size="14.00" fill="#000000">CommonModule</text>
</g>
<!-- AngularDatatableModule -->
<g id="node2" class="node">
<title>AngularDatatableModule</title>
<polygon fill="#8dd3c7" stroke="#000000" points="559.559,-187 556.559,-191 535.559,-191 532.559,-187 400.441,-187 400.441,-151 559.559,-151 559.559,-187"/>
<text text-anchor="middle" x="480" y="-164.8" font-family="Times,serif" font-size="14.00" fill="#000000">AngularDatatableModule</text>
</g>
<!-- CommonModule&#45;&gt;AngularDatatableModule -->
<g id="edge1" class="edge">
<title>CommonModule&#45;&gt;AngularDatatableModule</title>
<path fill="none" stroke="#000000" d="M480,-122.1061C480,-122.1061 480,-140.991 480,-140.991"/>
<polygon fill="#000000" stroke="#000000" points="476.5001,-140.9909 480,-150.991 483.5001,-140.991 476.5001,-140.9909"/>
</g>
<!-- AngularDatatableDirective  -->
<g id="node3" class="node">
<title>AngularDatatableDirective </title>
<polygon fill="#fb8072" stroke="#000000" points="879.592,-252 708.408,-252 708.408,-216 879.592,-216 879.592,-252"/>
<text text-anchor="middle" x="794" y="-229.8" font-family="Times,serif" font-size="14.00" fill="#000000">AngularDatatableDirective </text>
</g>
<!-- AngularDatatableModule&#45;&gt;AngularDatatableDirective  -->
<g id="edge2" class="edge">
<title>AngularDatatableModule&#45;&gt;AngularDatatableDirective </title>
<path fill="none" stroke="#000000" stroke-dasharray="5,2" d="M559.6414,-169C652.6671,-169 794,-169 794,-169 794,-169 794,-205.8939 794,-205.8939"/>
<polygon fill="#000000" stroke="#000000" points="790.5001,-205.8938 794,-215.8939 797.5001,-205.8939 790.5001,-205.8938"/>
</g>
<!-- AngularDefaultSorterComponent  -->
<g id="node4" class="node">
<title>AngularDefaultSorterComponent </title>
<polygon fill="#fb8072" stroke="#000000" points="690.3914,-252 483.6086,-252 483.6086,-216 690.3914,-216 690.3914,-252"/>
<text text-anchor="middle" x="587" y="-229.8" font-family="Times,serif" font-size="14.00" fill="#000000">AngularDefaultSorterComponent </text>
</g>
<!-- AngularDatatableModule&#45;&gt;AngularDefaultSorterComponent  -->
<g id="edge3" class="edge">
<title>AngularDatatableModule&#45;&gt;AngularDefaultSorterComponent </title>
<path fill="none" stroke="#000000" stroke-dasharray="5,2" d="M521.5419,-187.1061C521.5419,-187.1061 521.5419,-205.991 521.5419,-205.991"/>
<polygon fill="#000000" stroke="#000000" points="518.042,-205.9909 521.5419,-215.991 525.042,-205.991 518.042,-205.9909"/>
</g>
<!-- AngularPaginatorComponent  -->
<g id="node5" class="node">
<title>AngularPaginatorComponent </title>
<polygon fill="#fb8072" stroke="#000000" points="465.3587,-252 280.6413,-252 280.6413,-216 465.3587,-216 465.3587,-252"/>
<text text-anchor="middle" x="373" y="-229.8" font-family="Times,serif" font-size="14.00" fill="#000000">AngularPaginatorComponent </text>
</g>
<!-- AngularDatatableModule&#45;&gt;AngularPaginatorComponent  -->
<g id="edge4" class="edge">
<title>AngularDatatableModule&#45;&gt;AngularPaginatorComponent </title>
<path fill="none" stroke="#000000" stroke-dasharray="5,2" d="M432.8249,-187.1061C432.8249,-187.1061 432.8249,-205.991 432.8249,-205.991"/>
<polygon fill="#000000" stroke="#000000" points="429.3249,-205.9909 432.8249,-215.991 436.3249,-205.991 429.3249,-205.9909"/>
</g>
<!-- AngularBootstrapPaginatorComponent  -->
<g id="node6" class="node">
<title>AngularBootstrapPaginatorComponent </title>
<polygon fill="#fb8072" stroke="#000000" points="262.2961,-252 23.7039,-252 23.7039,-216 262.2961,-216 262.2961,-252"/>
<text text-anchor="middle" x="143" y="-229.8" font-family="Times,serif" font-size="14.00" fill="#000000">AngularBootstrapPaginatorComponent </text>
</g>
<!-- AngularDatatableModule&#45;&gt;AngularBootstrapPaginatorComponent  -->
<g id="edge5" class="edge">
<title>AngularDatatableModule&#45;&gt;AngularBootstrapPaginatorComponent </title>
<path fill="none" stroke="#000000" stroke-dasharray="5,2" d="M400.1357,-169C300.4802,-169 143,-169 143,-169 143,-169 143,-205.8939 143,-205.8939"/>
<polygon fill="#000000" stroke="#000000" points="139.5001,-205.8938 143,-215.8939 146.5001,-205.8939 139.5001,-205.8938"/>
</g>
</g>
</svg>
