<?xml version="1.0" encoding="UTF-8" standalone="no"?>
<!DOCTYPE svg PUBLIC "-//W3C//DTD SVG 1.1//EN"
 "http://www.w3.org/Graphics/SVG/1.1/DTD/svg11.dtd">
<!-- Generated by graphviz version 2.40.1 (20161225.0304)
 -->
<!-- Title: dependencies Pages: 1 -->
<svg width="1033pt" height="284pt"
 viewBox="0.00 0.00 1033.00 284.00" xmlns="http://www.w3.org/2000/svg" xmlns:xlink="http://www.w3.org/1999/xlink">
<g id="graph0" class="graph" transform="scale(1 1) rotate(0) translate(4 280)">
<title>dependencies</title>
<polygon fill="#ffffff" stroke="transparent" points="-4,4 -4,-280 1029,-280 1029,4 -4,4"/>
<text text-anchor="start" x="491.5091" y="-42.4" font-family="sans-serif" font-weight="bold" font-size="14.00" fill="#000000">Legend</text>
<polygon fill="#ffffb3" stroke="transparent" points="278.5,-10 278.5,-30 298.5,-30 298.5,-10 278.5,-10"/>
<text text-anchor="start" x="302.129" y="-15.4" font-family="sans-serif" font-size="14.00" fill="#000000"> &#160;Declarations</text>
<polygon fill="#8dd3c7" stroke="transparent" points="391.5,-10 391.5,-30 411.5,-30 411.5,-10 391.5,-10"/>
<text text-anchor="start" x="415.2251" y="-15.4" font-family="sans-serif" font-size="14.00" fill="#000000"> &#160;Module</text>
<polygon fill="#80b1d3" stroke="transparent" points="477.5,-10 477.5,-30 497.5,-30 497.5,-10 477.5,-10"/>
<text text-anchor="start" x="501.2812" y="-15.4" font-family="sans-serif" font-size="14.00" fill="#000000"> &#160;Bootstrap</text>
<polygon fill="#fdb462" stroke="transparent" points="574.5,-10 574.5,-30 594.5,-30 594.5,-10 574.5,-10"/>
<text text-anchor="start" x="598.1732" y="-15.4" font-family="sans-serif" font-size="14.00" fill="#000000"> &#160;Providers</text>
<polygon fill="#fb8072" stroke="transparent" points="670.5,-10 670.5,-30 690.5,-30 690.5,-10 670.5,-10"/>
<text text-anchor="start" x="694.2258" y="-15.4" font-family="sans-serif" font-size="14.00" fill="#000000"> &#160;Exports</text>
<g id="clust1" class="cluster">
<title>cluster_AngularDatatableModule</title>
<polygon fill="none" stroke="#000000" stroke-dasharray="1,5" points="8,-70 8,-268 1017,-268 1017,-70 8,-70"/>
</g>
<g id="clust2" class="cluster">
<title>cluster_AngularDatatableModule_declarations</title>
<polygon fill="none" stroke="#000000" points="152,-78 152,-130 1009,-130 1009,-78 152,-78"/>
</g>
<g id="clust7" class="cluster">
<title>cluster_AngularDatatableModule_imports</title>
<polygon fill="none" stroke="#000000" points="16,-78 16,-130 144,-130 144,-78 16,-78"/>
</g>
<g id="clust8" class="cluster">
<title>cluster_AngularDatatableModule_exports</title>
<polygon fill="none" stroke="#000000" points="77,-208 77,-260 949,-260 949,-208 77,-208"/>
</g>
<!-- AngularDatatableDirective -->
<g id="node1" class="node">
<title>AngularDatatableDirective</title>
<polygon fill="#ffffb3" stroke="#000000" points="1000.5925,-122 833.4075,-122 833.4075,-86 1000.5925,-86 1000.5925,-122"/>
<text text-anchor="middle" x="917" y="-99.8" font-family="Times,serif" font-size="14.00" fill="#000000">AngularDatatableDirective</text>
</g>
<!-- AngularDatatableModule -->
<g id="node5" class="node">
<title>AngularDatatableModule</title>
<polygon fill="#8dd3c7" stroke="#000000" points="583.559,-187 580.559,-191 559.559,-191 556.559,-187 424.441,-187 424.441,-151 583.559,-151 583.559,-187"/>
<text text-anchor="middle" x="504" y="-164.8" font-family="Times,serif" font-size="14.00" fill="#000000">AngularDatatableModule</text>
</g>
<!-- AngularDatatableDirective&#45;&gt;AngularDatatableModule -->
<g id="edge1" class="edge">
<title>AngularDatatableDirective&#45;&gt;AngularDatatableModule</title>
<path fill="none" stroke="#000000" d="M886.875,-122.1061C886.875,-141.3391 886.875,-169 886.875,-169 886.875,-169 593.7971,-169 593.7971,-169"/>
<polygon fill="#000000" stroke="#000000" points="593.7971,-165.5001 583.7971,-169 593.7971,-172.5001 593.7971,-165.5001"/>
</g>
<!-- AngularDefaultSorterComponent -->
<g id="node2" class="node">
<title>AngularDefaultSorterComponent</title>
<polygon fill="#ffffb3" stroke="#000000" points="815.8918,-122 612.1082,-122 612.1082,-86 815.8918,-86 815.8918,-122"/>
<text text-anchor="middle" x="714" y="-99.8" font-family="Times,serif" font-size="14.00" fill="#000000">AngularDefaultSorterComponent</text>
</g>
<!-- AngularDefaultSorterComponent&#45;&gt;AngularDatatableModule -->
<g id="edge2" class="edge">
<title>AngularDefaultSorterComponent&#45;&gt;AngularDatatableModule</title>
<path fill="none" stroke="#000000" d="M681.875,-122.027C681.875,-138.3976 681.875,-160 681.875,-160 681.875,-160 593.5728,-160 593.5728,-160"/>
<polygon fill="#000000" stroke="#000000" points="593.5729,-156.5001 583.5728,-160 593.5728,-163.5001 593.5729,-156.5001"/>
</g>
<!-- AngularPaginatorComponent -->
<g id="node3" class="node">
<title>AngularPaginatorComponent</title>
<polygon fill="#ffffb3" stroke="#000000" points="594.3585,-122 413.6415,-122 413.6415,-86 594.3585,-86 594.3585,-122"/>
<text text-anchor="middle" x="504" y="-99.8" font-family="Times,serif" font-size="14.00" fill="#000000">AngularPaginatorComponent</text>
</g>
<!-- AngularPaginatorComponent&#45;&gt;AngularDatatableModule -->
<g id="edge3" class="edge">
<title>AngularPaginatorComponent&#45;&gt;AngularDatatableModule</title>
<path fill="none" stroke="#000000" d="M504,-122.1061C504,-122.1061 504,-140.991 504,-140.991"/>
<polygon fill="#000000" stroke="#000000" points="500.5001,-140.9909 504,-150.991 507.5001,-140.991 500.5001,-140.9909"/>
</g>
<!-- AngularBootstrapPaginatorComponent -->
<g id="node4" class="node">
<title>AngularBootstrapPaginatorComponent</title>
<polygon fill="#ffffb3" stroke="#000000" points="395.7962,-122 160.2038,-122 160.2038,-86 395.7962,-86 395.7962,-122"/>
<text text-anchor="middle" x="278" y="-99.8" font-family="Times,serif" font-size="14.00" fill="#000000">AngularBootstrapPaginatorComponent</text>
</g>
<!-- AngularBootstrapPaginatorComponent&#45;&gt;AngularDatatableModule -->
<g id="edge4" class="edge">
<title>AngularBootstrapPaginatorComponent&#45;&gt;AngularDatatableModule</title>
<path fill="none" stroke="#000000" d="M368.7344,-122.027C368.7344,-138.3976 368.7344,-160 368.7344,-160 368.7344,-160 414.1424,-160 414.1424,-160"/>
<polygon fill="#000000" stroke="#000000" points="414.1424,-163.5001 424.1424,-160 414.1423,-156.5001 414.1424,-163.5001"/>
</g>
<!-- AngularDatatableDirective  -->
<g id="node7" class="node">
<title>AngularDatatableDirective </title>
<polygon fill="#fb8072" stroke="#000000" points="940.592,-252 769.408,-252 769.408,-216 940.592,-216 940.592,-252"/>
<text text-anchor="middle" x="855" y="-229.8" font-family="Times,serif" font-size="14.00" fill="#000000">AngularDatatableDirective </text>
</g>
<!-- AngularDatatableModule&#45;&gt;AngularDatatableDirective  -->
<g id="edge6" class="edge">
<title>AngularDatatableModule&#45;&gt;AngularDatatableDirective </title>
<path fill="none" stroke="#000000" stroke-dasharray="5,2" d="M583.6182,-178C669.0347,-178 792.5749,-178 792.5749,-178 792.5749,-178 792.5749,-205.973 792.5749,-205.973"/>
<polygon fill="#000000" stroke="#000000" points="789.0749,-205.973 792.5749,-215.973 796.0749,-205.973 789.0749,-205.973"/>
</g>
<!-- AngularDefaultSorterComponent  -->
<g id="node8" class="node">
<title>AngularDefaultSorterComponent </title>
<polygon fill="#fb8072" stroke="#000000" points="751.3914,-252 544.6086,-252 544.6086,-216 751.3914,-216 751.3914,-252"/>
<text text-anchor="middle" x="648" y="-229.8" font-family="Times,serif" font-size="14.00" fill="#000000">AngularDefaultSorterComponent </text>
</g>
<!-- AngularDatatableModule&#45;&gt;AngularDefaultSorterComponent  -->
<g id="edge7" class="edge">
<title>AngularDatatableModule&#45;&gt;AngularDefaultSorterComponent </title>
<path fill="none" stroke="#000000" stroke-dasharray="5,2" d="M564.0419,-187.1061C564.0419,-187.1061 564.0419,-205.991 564.0419,-205.991"/>
<polygon fill="#000000" stroke="#000000" points="560.542,-205.9909 564.0419,-215.991 567.542,-205.991 560.542,-205.9909"/>
</g>
<!-- AngularPaginatorComponent  -->
<g id="node9" class="node">
<title>AngularPaginatorComponent </title>
<polygon fill="#fb8072" stroke="#000000" points="526.3587,-252 341.6413,-252 341.6413,-216 526.3587,-216 526.3587,-252"/>
<text text-anchor="middle" x="434" y="-229.8" font-family="Times,serif" font-size="14.00" fill="#000000">AngularPaginatorComponent </text>
</g>
<!-- AngularDatatableModule&#45;&gt;AngularPaginatorComponent  -->
<g id="edge8" class="edge">
<title>AngularDatatableModule&#45;&gt;AngularPaginatorComponent </title>
<path fill="none" stroke="#000000" stroke-dasharray="5,2" d="M475.3249,-187.1061C475.3249,-187.1061 475.3249,-205.991 475.3249,-205.991"/>
<polygon fill="#000000" stroke="#000000" points="471.8249,-205.9909 475.3249,-215.991 478.8249,-205.991 471.8249,-205.9909"/>
</g>
<!-- AngularBootstrapPaginatorComponent  -->
<g id="node10" class="node">
<title>AngularBootstrapPaginatorComponent </title>
<polygon fill="#fb8072" stroke="#000000" points="323.2961,-252 84.7039,-252 84.7039,-216 323.2961,-216 323.2961,-252"/>
<text text-anchor="middle" x="204" y="-229.8" font-family="Times,serif" font-size="14.00" fill="#000000">AngularBootstrapPaginatorComponent </text>
</g>
<!-- AngularDatatableModule&#45;&gt;AngularBootstrapPaginatorComponent  -->
<g id="edge9" class="edge">
<title>AngularDatatableModule&#45;&gt;AngularBootstrapPaginatorComponent </title>
<path fill="none" stroke="#000000" stroke-dasharray="5,2" d="M424.2862,-178C347.1676,-178 241.875,-178 241.875,-178 241.875,-178 241.875,-205.973 241.875,-205.973"/>
<polygon fill="#000000" stroke="#000000" points="238.3751,-205.973 241.875,-215.973 245.3751,-205.973 238.3751,-205.973"/>
</g>
<!-- CommonModule -->
<g id="node6" class="node">
<title>CommonModule</title>
<polygon fill="#8dd3c7" stroke="#000000" points="135.6681,-122 132.6681,-126 111.6681,-126 108.6681,-122 24.3319,-122 24.3319,-86 135.6681,-86 135.6681,-122"/>
<text text-anchor="middle" x="80" y="-99.8" font-family="Times,serif" font-size="14.00" fill="#000000">CommonModule</text>
</g>
<!-- CommonModule&#45;&gt;AngularDatatableModule -->
<g id="edge5" class="edge">
<title>CommonModule&#45;&gt;AngularDatatableModule</title>
<path fill="none" stroke="#000000" d="M110.2179,-122.1061C110.2179,-141.3391 110.2179,-169 110.2179,-169 110.2179,-169 414.3123,-169 414.3123,-169"/>
<polygon fill="#000000" stroke="#000000" points="414.3124,-172.5001 424.3123,-169 414.3123,-165.5001 414.3124,-172.5001"/>
</g>
</g>
</svg>
